<?xml version="1.0" encoding="utf-8"?>
<!-- Generator: Adobe Illustrator 21.0.0, SVG Export Plug-In . SVG Version: 6.00 Build 0)  -->
<svg version="1.1" id="Layer_1" xmlns="http://www.w3.org/2000/svg" xmlns:xlink="http://www.w3.org/1999/xlink" x="0px" y="0px"
	 viewBox="0 0 24 24" style="enable-background:new 0 0 24 24;" xml:space="preserve">
<style type="text/css">
	.st0{fill:#FFFFFF;}
</style>
<path class="st0" d="M16.8,23c-0.4-0.2-0.7-0.5-0.8-1c-0.1-0.3,0-0.4,0.4-1.2c1.5-2.7,2.3-5.8,2.2-8.8c0-3-0.7-5.9-2.1-8.6
	c-0.2-0.4-0.4-0.9-0.6-1.3c0.1-0.4,0.3-0.7,0.6-0.9c0.5-0.2,1-0.2,1.4,0.1c0.3,0.4,0.5,0.7,0.7,1.1c1.1,2.1,1.8,4.3,2.2,6.6
	c0.2,1.8,0.3,3.6,0.1,5.5c-0.3,2.3-1,4.6-2.1,6.7c-0.6,1.3-1,1.8-1.4,1.8c-0.1,0-0.2,0-0.3,0C17.1,23,16.9,23,16.8,23L16.8,23
	 M12.4,20.8c-0.6-0.2-0.9-0.7-0.8-1.3c0-0.1,0.3-0.7,0.6-1.2c1.2-2.3,1.7-4.8,1.5-7.4C13.5,9,13,7.3,12.1,5.6
	c-0.6-1.3-0.7-1.5-0.3-2c0.4-0.5,1.2-0.6,1.7-0.1c0.7,1.1,1.3,2.2,1.7,3.4c1.3,3.8,1.1,7.9-0.6,11.6C13.9,20.4,13.3,21,12.4,20.8
	L12.4,20.8 M7.9,18.6c-0.4-0.2-0.6-0.5-0.7-0.9c0-0.2,0-0.5,0.5-1.3c1.5-2.7,1.5-6,0-8.7C7,6.5,7,6.2,7.5,5.8C7.7,5.5,8,5.4,8.3,5.5
	c0.6,0,1,0.3,1.5,1.4c0.8,1.6,1.3,3.3,1.3,5.1c0,1.8-0.4,3.6-1.3,5.2c-0.5,1-0.8,1.3-1.4,1.4C8.3,18.6,8.1,18.6,7.9,18.6L7.9,18.6
	 M3.7,16.4C3.4,16.3,3.1,16,3,15.6c-0.1-0.3,0-0.6,0.4-1.3c0.5-0.7,0.7-1.5,0.7-2.4c0.1-0.9-0.2-1.7-0.7-2.4C3.3,9.4,3.1,9.1,3,8.8
	C2.9,8.2,3.3,7.6,4,7.5c0.5-0.1,0.9,0.1,1.4,0.9c1.4,2.2,1.4,5.1,0,7.3C4.9,16.4,4.3,16.6,3.7,16.4L3.7,16.4z"/>
</svg>
